<svg xmlns="http://www.w3.org/2000/svg" version="1.1" xmlns:xlink="http://www.w3.org/1999/xlink" width="200" height="200"><svg xmlns="http://www.w3.org/2000/svg" version="1.1" xmlns:xlink="http://www.w3.org/1999/xlink" width="200" height="200"><svg xmlns="http://www.w3.org/2000/svg" version="1.1" xmlns:xlink="http://www.w3.org/1999/xlink" viewBox="0 0 200 200"><rect width="200" height="200" fill="url('#gradient')"></rect><defs><linearGradient id="gradient" gradientTransform="rotate(45 0.5 0.5)"><stop offset="0%" stop-color="#bc112a"></stop><stop offset="100%" stop-color="#bc112a"></stop></linearGradient></defs><g><g fill="#100002" transform="matrix(1.064194930131311,0,0,1.064194930131311,24.856844848557213,107.39407595767122)" stroke="#5b8d84" stroke-width="0"><path d="M8.94 0L5.91-5.29L4.50-3.75L4.50 0L1.07 0L1.07-14.22L4.50-14.22L4.50-7.95L5.69-9.76L8.76-14.22L13.00-14.22L8.19-7.93L13.00 0L8.94 0ZM25.71-7.31L25.71-6.82Q25.71-4.74 24.94-3.13Q24.17-1.53 22.75-0.67Q21.33 0.20 19.51 0.20L19.51 0.20Q17.93 0.20 16.66-0.44L16.66-0.44L15.87 0.93L13.85 0.93L15.22-1.46Q13.28-3.41 13.28-6.89L13.28-6.89L13.28-7.39Q13.28-9.49 14.05-11.08Q14.81-12.68 16.24-13.54Q17.66-14.41 19.49-14.41L19.49-14.41Q21.03-14.41 22.29-13.79L22.29-13.79L22.89-14.82L24.92-14.82L23.74-12.76Q25.71-10.81 25.71-7.31L25.71-7.31ZM22.23-6.76L22.23-7.41Q22.23-8.71 21.94-9.65L21.94-9.65L18.08-2.92Q18.66-2.48 19.51-2.48L19.51-2.48Q20.82-2.48 21.52-3.58Q22.22-4.69 22.23-6.76L22.23-6.76ZM16.76-7.47L16.76-6.82Q16.76-5.52 17.02-4.60L17.02-4.60L20.87-11.31Q20.28-11.73 19.49-11.73L19.49-11.73Q18.13-11.73 17.45-10.64Q16.77-9.56 16.76-7.47L16.76-7.47ZM35.12 0L32.61-5.02L30.75-5.02L30.75 0L27.32 0L27.32-14.22L32.92-14.22Q35.45-14.22 36.88-13.10Q38.30-11.97 38.30-9.92L38.30-9.92Q38.30-8.44 37.70-7.46Q37.10-6.48 35.82-5.88L35.82-5.88L38.79-0.15L38.79 0L35.12 0ZM30.75-11.57L30.75-7.67L32.92-7.67Q33.90-7.67 34.39-8.18Q34.88-8.69 34.88-9.61Q34.88-10.53 34.38-11.05Q33.89-11.57 32.92-11.57L32.92-11.57L30.75-11.57ZM49.19-8.57L49.19-6.03L43.80-6.03L43.80-2.64L50.17-2.64L50.17 0L40.37 0L40.37-14.22L50.19-14.22L50.19-11.57L43.80-11.57L43.80-8.57L49.19-8.57ZM59.36 0L56.85-5.02L54.99-5.02L54.99 0L51.56 0L51.56-14.22L57.16-14.22Q59.69-14.22 61.11-13.10Q62.54-11.97 62.54-9.92L62.54-9.92Q62.54-8.44 61.94-7.46Q61.34-6.48 60.06-5.88L60.06-5.88L63.03-0.15L63.03 0L59.36 0ZM54.99-11.57L54.99-7.67L57.16-7.67Q58.13-7.67 58.63-8.18Q59.12-8.69 59.12-9.61Q59.12-10.53 58.62-11.05Q58.13-11.57 57.16-11.57L57.16-11.57L54.99-11.57ZM80.17-14.22L80.17-11.57L75.90-11.57L75.90 0L72.47 0L72.47-11.57L68.28-11.57L68.28-14.22L80.17-14.22ZM89.35 0L88.52-2.66L83.82-2.66L83.00 0L79.34 0L84.55-14.22L87.77-14.22L93.03 0L89.35 0ZM86.16-10.23L84.64-5.30L87.70-5.30L86.16-10.23ZM97.49-14.22L97.49-2.64L103.46-2.64L103.46 0L94.06 0L94.06-14.22L97.49-14.22ZM115.92-7.60L115.92-1.76Q115.13-0.88 113.60-0.34Q112.08 0.20 110.26 0.20L110.26 0.20Q107.47 0.20 105.80-1.51Q104.13-3.22 104.01-6.27L104.01-6.27L104.00-7.50Q104.00-9.60 104.75-11.17Q105.49-12.73 106.87-13.58Q108.25-14.42 110.07-14.42L110.07-14.42Q112.72-14.42 114.19-13.21Q115.66-11.99 115.91-9.58L115.91-9.58L112.61-9.58Q112.43-10.77 111.85-11.28Q111.26-11.79 110.19-11.79L110.19-11.79Q108.90-11.79 108.19-10.69Q107.49-9.60 107.48-7.57L107.48-7.57L107.48-6.71Q107.48-4.58 108.21-3.51Q108.94-2.44 110.50-2.44L110.50-2.44Q111.84-2.44 112.49-3.04L112.49-3.04L112.49-5.24L110.11-5.24L110.11-7.60L115.92-7.60ZM129.95-7.47L129.95-6.82Q129.95-4.74 129.18-3.13Q128.41-1.53 126.99-0.67Q125.57 0.20 123.75 0.20Q121.93 0.20 120.53-0.64Q119.12-1.47 118.33-3.03Q117.55-4.58 117.51-6.59L117.51-6.59L117.51-7.39Q117.51-9.48 118.28-11.08Q119.04-12.68 120.47-13.54Q121.90-14.41 123.73-14.41L123.73-14.41Q125.54-14.41 126.95-13.55Q128.37-12.70 129.16-11.11Q129.94-9.52 129.95-7.47L129.95-7.47ZM126.46-6.76L126.46-7.41Q126.46-9.53 125.76-10.63Q125.05-11.73 123.73-11.73L123.73-11.73Q121.15-11.73 121.01-7.86L121.01-7.86L121.00-6.82Q121.00-4.73 121.69-3.60Q122.38-2.48 123.75-2.48L123.75-2.48Q125.05-2.48 125.75-3.58Q126.46-4.69 126.46-6.76L126.46-6.76ZM136.80-4.50L134.00-4.50Q134.00-5.93 134.33-6.75Q134.65-7.58 135.37-8.18Q136.09-8.79 136.47-9.29Q136.85-9.79 136.85-10.40L136.85-10.40Q136.85-11.88 135.58-11.88L135.58-11.88Q134.99-11.88 134.63-11.45Q134.27-11.02 134.25-10.28L134.25-10.28L130.95-10.28Q130.97-12.24 132.18-13.33Q133.39-14.41 135.58-14.41L135.58-14.41Q137.75-14.41 138.95-13.41Q140.15-12.40 140.15-10.55L140.15-10.55Q140.15-9.74 139.82-9.07Q139.50-8.41 138.79-7.71L138.79-7.71L137.67-6.67Q137.19-6.21 137.00-5.73Q136.82-5.24 136.80-4.50L136.80-4.50ZM133.60-1.53L133.60-1.53Q133.60-2.26 134.13-2.72Q134.65-3.18 135.43-3.18Q136.21-3.18 136.73-2.72Q137.26-2.26 137.26-1.53Q137.26-0.81 136.73-0.35Q136.21 0.12 135.43 0.12Q134.65 0.12 134.13-0.35Q133.60-0.81 133.60-1.53Z"></path></g></g></svg></svg><style>@media (prefers-color-scheme: light) { :root { filter: none; } }
@media (prefers-color-scheme: dark) { :root { filter: none; } }
</style></svg>